<svg width="64" height="64" viewBox="0 0 64 64" fill="none" xmlns="http://www.w3.org/2000/svg">
<rect x="0.5" y="0.5" width="63" height="63" rx="7.5" fill="url(#paint0_linear_83_30258)"/>
<rect x="0.5" y="0.5" width="63" height="63" rx="7.5" stroke="url(#paint1_linear_83_30258)"/>
<path d="M27.5502 41.75C36.6045 41.75 41.5583 34.2467 41.5583 27.7419C41.5583 27.5309 41.5536 27.3153 41.5442 27.1044C42.5079 26.4075 43.3395 25.5443 44 24.5553C43.1025 24.9546 42.1496 25.2154 41.1739 25.3287C42.2013 24.7129 42.9705 23.7455 43.3391 22.6058C42.3726 23.1786 41.3156 23.5826 40.2134 23.8006C39.4708 23.0116 38.489 22.4891 37.4197 22.3141C36.3504 22.139 35.2532 22.3211 34.2977 22.8321C33.3423 23.3431 32.5818 24.1547 32.1338 25.1413C31.6859 26.1279 31.5754 27.2346 31.8195 28.2903C29.8625 28.1921 27.9479 27.6837 26.2 26.7981C24.452 25.9125 22.9097 24.6694 21.673 23.1495C21.0444 24.2332 20.8521 25.5156 21.135 26.7361C21.418 27.9565 22.1551 29.0234 23.1964 29.72C22.4146 29.6952 21.65 29.4847 20.9656 29.1059V29.1669C20.9649 30.3041 21.3581 31.4066 22.0783 32.2868C22.7985 33.167 23.8013 33.7706 24.9162 33.995C24.1921 34.1931 23.432 34.222 22.6948 34.0794C23.0095 35.0574 23.6216 35.9129 24.4458 36.5263C25.27 37.1398 26.2651 37.4806 27.2923 37.5012C25.5484 38.8711 23.3942 39.6141 21.1766 39.6106C20.7833 39.61 20.3904 39.5859 20 39.5384C22.2529 40.9837 24.8735 41.7514 27.5502 41.75Z" fill="#9EFF00"/>
<defs>
<linearGradient id="paint0_linear_83_30258" x1="32" y1="0" x2="32" y2="64" gradientUnits="userSpaceOnUse">
<stop stop-color="#242424"/>
<stop offset="1" stop-color="#242424" stop-opacity="0"/>
</linearGradient>
<linearGradient id="paint1_linear_83_30258" x1="32" y1="0" x2="32" y2="64" gradientUnits="userSpaceOnUse">
<stop stop-color="#2E2E2E"/>
<stop offset="1" stop-color="#2E2E2E" stop-opacity="0"/>
</linearGradient>
</defs>
</svg>
