<svg width="37" height="32" viewBox="0 0 37 32" fill="none" xmlns="http://www.w3.org/2000/svg">
<path fill-rule="evenodd" clip-rule="evenodd" d="M11.0607 6.43958C11.6464 7.02537 11.6464 7.97512 11.0607 8.5609L3.62132 16.0002L11.0607 23.4396C11.6464 24.0254 11.6464 24.9751 11.0607 25.5609C10.4749 26.1467 9.52513 26.1467 8.93934 25.5609L0.43934 17.0609C-0.146447 16.4751 -0.146447 15.5254 0.43934 14.9396L8.93934 6.43958C9.52513 5.8538 10.4749 5.8538 11.0607 6.43958ZM25.9393 6.43958C26.5251 5.8538 27.4749 5.8538 28.0607 6.43958L36.5607 14.9396C37.1464 15.5254 37.1464 16.4751 36.5607 17.0609L28.0607 25.5609C27.4749 26.1467 26.5251 26.1467 25.9393 25.5609C25.3536 24.9751 25.3536 24.0254 25.9393 23.4396L33.3787 16.0002L25.9393 8.5609C25.3536 7.97512 25.3536 7.02537 25.9393 6.43958Z" fill="#9EFF00"/>
<path fill-rule="evenodd" clip-rule="evenodd" d="M21.2549 0.0220539C22.0712 0.162809 22.6189 0.938722 22.4782 1.7551L17.4782 30.7551C17.3374 31.5715 16.5615 32.1192 15.7451 31.9784C14.9288 31.8377 14.3811 31.0618 14.5218 30.2454L19.5218 1.24538C19.6626 0.429002 20.4385 -0.118702 21.2549 0.0220539Z" fill="#9EFF00"/>
</svg>
