<svg width="88" height="88" viewBox="0 0 88 88" fill="none" xmlns="http://www.w3.org/2000/svg">
<rect x="0.5" y="0.5" width="87" height="87" rx="9.5" fill="url(#paint0_linear_44_335)"/>
<rect x="0.5" y="0.5" width="87" height="87" rx="9.5" fill="url(#paint1_linear_44_335)" fill-opacity="0.2"/>
<rect x="0.5" y="0.5" width="87" height="87" rx="9.5" stroke="url(#paint2_linear_44_335)"/>
<path d="M39.7112 53.1936H53.9336C55.71 53.1936 56.3436 52.6926 56.3436 51.7127C56.3436 48.84 52.689 44.8761 46.8167 44.8761C40.9557 44.8761 37.3012 48.84 37.3012 51.7127C37.3012 52.6926 37.9347 53.1936 39.7112 53.1936ZM46.828 42.883C49.2607 42.883 51.3538 40.7452 51.3538 37.9616C51.3538 35.2114 49.2494 33.1738 46.828 33.1738C44.4067 33.1738 42.3022 35.256 42.3022 37.9839C42.3022 40.7452 44.3954 42.883 46.828 42.883ZM27.4914 53.1936H36.0905C34.9138 51.5123 36.3507 48.1274 38.7833 46.2791C37.5274 45.4552 35.9094 44.8427 33.7936 44.8427C28.6907 44.8427 25.5 48.5505 25.5 51.6348C25.5 52.6369 26.0657 53.1936 27.4914 53.1936ZM33.8049 43.1392C35.9094 43.1392 37.7424 41.2686 37.7424 38.8524C37.7424 36.4585 35.8981 34.6881 33.8049 34.6881C31.7004 34.6881 29.8448 36.503 29.8561 38.8747C29.8561 41.2686 31.6891 43.1392 33.8049 43.1392ZM55.2008 42.5491C55.5856 42.8051 56.1173 42.7272 56.4228 42.2929C57.2941 41.1683 57.8146 39.5094 57.8146 37.8058C57.8146 36.1022 57.2941 34.4543 56.4228 33.3186C56.1173 32.8843 55.5856 32.8064 55.2008 33.0625C54.7483 33.3743 54.669 33.931 55.0311 34.3875C55.6873 35.2782 56.0607 36.5142 56.0607 37.8058C56.0607 39.0974 55.6761 40.3221 55.0311 41.224C54.6804 41.6917 54.7483 42.2261 55.2008 42.5491ZM59.3986 45.4552C59.8172 45.7335 60.3376 45.6333 60.6431 45.2102C62.0914 43.2506 62.94 40.556 62.94 37.8058C62.94 35.0556 62.1028 32.3387 60.6431 30.4014C60.3376 29.9782 59.8172 29.878 59.3986 30.1564C58.9799 30.4348 58.9121 30.9581 59.2402 31.4146C60.4735 33.1293 61.1862 35.4341 61.1862 37.8058C61.1862 40.1774 60.4508 42.4711 59.2402 44.1969C58.9234 44.6534 58.9799 45.1768 59.3986 45.4552Z" fill="#9EFF00"/>
<defs>
<linearGradient id="paint0_linear_44_335" x1="44" y1="0" x2="44" y2="88" gradientUnits="userSpaceOnUse">
<stop stop-color="#242424"/>
<stop offset="1" stop-color="#242424" stop-opacity="0"/>
</linearGradient>
<linearGradient id="paint1_linear_44_335" x1="204" y1="-87.5" x2="8.27014e-06" y2="88" gradientUnits="userSpaceOnUse">
<stop offset="0.224072" stop-color="#9EFF00"/>
<stop offset="0.687143" stop-color="#9EFF00" stop-opacity="0"/>
</linearGradient>
<linearGradient id="paint2_linear_44_335" x1="44" y1="0" x2="44" y2="88" gradientUnits="userSpaceOnUse">
<stop stop-color="#2E2E2E"/>
<stop offset="1" stop-color="#2E2E2E" stop-opacity="0"/>
</linearGradient>
</defs>
</svg>
