<svg width="88" height="88" viewBox="0 0 88 88" fill="none" xmlns="http://www.w3.org/2000/svg">
<rect x="0.5" y="0.5" width="87" height="87" rx="9.5" fill="url(#paint0_linear_44_355)"/>
<rect x="0.5" y="0.5" width="87" height="87" rx="9.5" fill="url(#paint1_linear_44_355)" fill-opacity="0.2"/>
<rect x="0.5" y="0.5" width="87" height="87" rx="9.5" stroke="url(#paint2_linear_44_355)"/>
<path d="M32.8375 51.8223L33.2466 53.4589C33.7649 55.5867 34.897 56.6778 37.1474 56.6778H51.8365C54.1007 56.6778 55.219 55.6139 55.7509 53.4589L56.1601 51.8223H32.8375ZM32.3874 49.9538H56.6238L59.1879 39.4518L58.0695 38.8108L51.782 43.3934C51.3182 43.7208 51.0046 43.598 50.7454 43.2298L44.8261 34.2826L44.1714 34.2554L38.1976 43.2707C37.9657 43.6253 37.6929 43.7345 37.2292 43.4071L31.0644 38.9062L29.7551 39.2472L32.3874 49.9538ZM30.2597 42.1795C32.0601 42.1795 33.5058 40.7202 33.5058 38.9062C33.5058 37.1332 32.0601 35.6602 30.2597 35.6602C28.4594 35.6602 27 37.1195 27 38.9062C27 40.7202 28.473 42.1795 30.2597 42.1795ZM44.4988 36.5058C46.2855 36.5058 47.7448 35.0464 47.7448 33.2461C47.7448 31.473 46.2855 30 44.4988 30C42.6848 30 41.2391 31.4594 41.2391 33.2461C41.2391 35.0464 42.6985 36.5058 44.4988 36.5058ZM58.7242 42.1795C60.511 42.1795 61.9839 40.7202 61.9839 38.9062C61.9839 37.1195 60.5246 35.6602 58.7242 35.6602C56.9376 35.6602 55.4782 37.1332 55.4782 38.9062C55.4782 40.7202 56.9376 42.1795 58.7242 42.1795Z" fill="#9EFF00"/>
<defs>
<linearGradient id="paint0_linear_44_355" x1="44" y1="0" x2="44" y2="88" gradientUnits="userSpaceOnUse">
<stop stop-color="#242424"/>
<stop offset="1" stop-color="#242424" stop-opacity="0"/>
</linearGradient>
<linearGradient id="paint1_linear_44_355" x1="204" y1="-87.5" x2="8.27014e-06" y2="88" gradientUnits="userSpaceOnUse">
<stop offset="0.224072" stop-color="#9EFF00"/>
<stop offset="0.687143" stop-color="#9EFF00" stop-opacity="0"/>
</linearGradient>
<linearGradient id="paint2_linear_44_355" x1="44" y1="0" x2="44" y2="88" gradientUnits="userSpaceOnUse">
<stop stop-color="#2E2E2E"/>
<stop offset="1" stop-color="#2E2E2E" stop-opacity="0"/>
</linearGradient>
</defs>
</svg>
