<svg width="36" height="40" viewBox="0 0 36 40" fill="none" xmlns="http://www.w3.org/2000/svg">
<path d="M1.98818 37.7603C4.59978 40.3886 7.98148 40.4221 10.5596 37.844C12.6188 35.7849 14.611 31.1309 16.1344 28.8039L20.1857 32.8719C21.4246 34.1274 22.9313 34.1274 24.1031 32.9221L25.5429 31.4824C26.765 30.2436 26.7483 28.8373 25.4927 27.5817L12.1835 14.2558C10.9112 13.0002 9.48818 12.9835 8.26608 14.2056L6.82636 15.6453C5.621 16.8507 5.621 18.3071 6.87657 19.5627L10.9279 23.6141C8.61764 25.1376 3.98037 27.1297 1.90448 29.1889C-0.656905 31.767 -0.640165 35.1654 1.98818 37.7603ZM6.45806 35.584C5.30291 35.584 4.38216 34.6464 4.38216 33.508C4.38216 32.3697 5.30291 31.4489 6.45806 31.4489C7.59644 31.4489 8.5172 32.3697 8.5172 33.508C8.5172 34.6464 7.59644 35.584 6.45806 35.584ZM27.4849 26.8116L33.9804 20.3161C35.8386 18.4579 35.7884 16.248 33.8967 14.3227L33.0429 13.4522C31.3019 15.7123 26.3297 18.3574 25.3754 17.4031C25.2249 17.2524 25.208 16.9511 25.4257 16.7167C27.4513 14.6911 28.7739 12.7156 29.0753 9.50136L20.4703 0.879702C18.8799 -0.7107 16.1177 -0.191727 15.3643 2.82167C14.3096 7.10739 13.3554 9.6018 12.3174 11.661L27.4849 26.8116Z" fill="#9EFF00"/>
</svg>
