<svg width="27" height="31" viewBox="0 0 27 31" fill="none" xmlns="http://www.w3.org/2000/svg">
<path d="M8.12729 30.8476H22.5498C25.3447 30.8476 26.7422 29.4366 26.7422 26.5873V10.1297C26.7422 7.29408 25.3447 5.86947 22.5498 5.86947H9.56547L11.7906 8.05388H22.4277C23.8387 8.05388 24.5578 8.8001 24.5578 10.1569V26.5602C24.5578 27.917 23.8387 28.6632 22.4412 28.6632H8.23583C6.83835 28.6632 6.1057 27.917 6.1057 26.5602V16.8729H3.92129V26.5873C3.92129 29.4366 5.33234 30.8476 8.12729 30.8476ZM10.1896 13.8745H20.1755C20.6503 13.8745 21.0166 13.5081 21.0166 13.0332C21.0166 12.572 20.6503 12.2056 20.1755 12.2056H10.1896C9.68758 12.2056 9.33482 12.572 9.33482 13.0332C9.33482 13.5081 9.68758 13.8745 10.1896 13.8745ZM10.1896 19.193H20.1755C20.6503 19.193 21.0166 18.8131 21.0166 18.3382C21.0166 17.8769 20.6503 17.5241 20.1755 17.5241H10.1896C9.68758 17.5241 9.33482 17.8769 9.33482 18.3382C9.33482 18.8131 9.68758 19.193 10.1896 19.193ZM10.1896 24.4979H20.1755C20.6503 24.4979 21.0166 24.1452 21.0166 23.6839C21.0166 23.2091 20.6503 22.8291 20.1755 22.8291H10.1896C9.68758 22.8291 9.33482 23.2091 9.33482 23.6839C9.33482 24.1452 9.68758 24.4979 10.1896 24.4979ZM0.000217631 11.3644C-0.0133501 11.88 0.610766 12.0564 0.949958 11.7172L3.02582 9.64131L5.34591 15.3668C5.45445 15.6247 5.7258 15.7468 5.97002 15.6518L7.32679 15.1091C7.55744 15.0005 7.65241 14.7156 7.5303 14.4579L5.10168 8.82724L8.01874 8.70513C8.53432 8.67799 8.79211 8.18956 8.42577 7.7961L1.00423 0.171036C0.665036 -0.168157 0.135894 0.0217909 0.122327 0.523796L0.000217631 11.3644Z" fill="#9EFF00"/>
</svg>
